<svg id="Layer_1" data-name="Layer 1" xmlns="http://www.w3.org/2000/svg" viewBox="0 0 1000 1000"><defs><style>.cls-1{fill:#11a590;}.cls-2{fill:#0f918a;}.cls-3{fill:#29cc86;}.cls-4{fill:#109b94;}.cls-5{fill:#2aba8e;}.cls-6{fill:#108989;}.cls-7{fill:#0a726d;}.cls-8{fill:#1cad72;}.cls-9{fill:#14a179;}.cls-10{fill:#297;}.cls-11{fill:#0e997e;}.cls-12{fill:#08917b;}.cls-13{fill:#0c8c79;}</style></defs><title>forest logo</title><path class="cls-1" d="M770.63,115.73q-6.11-6.89-18.32-6.89H244a21.46,21.46,0,0,0-14.61,6.9q-6.11,6.38-6.11,17.53V875.33q0,19.65,19.13,22.31h162q24.42,0,24.43-22.84V631.52H668.38q10.62,0,16.73-8.24A28.52,28.52,0,0,0,691.22,606V479.07q0-12.21-6.9-17.79t-17-5.58H428.82V291h323q12.21,0,18.59-8.21t6.37-17.21V134.26Q776.74,122.6,770.63,115.73Z"/><path class="cls-2" d="M776.74,199.94v65.67q0,9-6.37,17.21T751.78,291h-323v40H425l-.33-.6L402.33,291l-51.65-91.09Z"/><path class="cls-3" d="M776.74,199.94v65.67q0,9-6.37,17.21T751.78,291H402.33l-51.65-91.09Z"/><path class="cls-3" d="M691.22,538.73V606a28.52,28.52,0,0,1-6.11,17.26q-6.11,8.25-16.73,8.24H508.21a57.22,57.22,0,0,0-6.15-42.2l-29-50.59Z"/><path class="cls-4" d="M350.68,199.94H223.25V133.27q0-11.15,6.11-17.53a21.46,21.46,0,0,1,14.61-6.9H299Z"/><polygon class="cls-5" points="402.33 291.03 223.25 291.03 223.25 199.94 350.68 199.94 402.33 291.03"/><path class="cls-6" d="M425,331H223.25V291H402.33l22.34,39.4Z"/><path class="cls-4" d="M473.05,538.73H223.25V331H425a57.93,57.93,0,0,1,3.82,8.4v39.1a58.61,58.61,0,0,1-29,32.52Z"/><path class="cls-5" d="M508.21,631.52H428.82V833.15l-205.57-164V538.73h249.8l29,50.59A57.22,57.22,0,0,1,508.21,631.52Z"/><path class="cls-7" d="M532.15,887.58a27.34,27.34,0,0,1-8.4,6.86,27.64,27.64,0,0,1-13.06,3.2H242.38q-19.12-2.65-19.13-22.31V133.27q0-11.15,6.11-17.53a24.24,24.24,0,0,1,3.06-2.72,21,21,0,0,1,8-3.67,22.91,22.91,0,0,1,3.57-.51h20.57l134,236.39a27.9,27.9,0,0,1-24.27,41.66H351.4L476,604.24A27.9,27.9,0,0,1,451.83,646H402.94L534.31,854.89A27.75,27.75,0,0,1,532.15,887.58Z"/><path class="cls-8" d="M351.38,356.89H223.25V133.27q0-11.15,6.11-17.53a24.24,24.24,0,0,1,3.06-2.72L361.17,340.09A11.25,11.25,0,0,1,351.38,356.89Z"/><path class="cls-9" d="M428.79,616H223.25V386.89h93.57L438.54,599.18A11.24,11.24,0,0,1,428.79,616Z"/><polygon class="cls-10" points="316.82 386.89 223.25 386.89 223.25 356.89 299.62 356.89 316.82 386.89"/><path class="cls-11" d="M523.75,894.44a27.64,27.64,0,0,1-13.06,3.2H242.38q-19.12-2.65-19.13-22.31V616H348.63l18.87,30Z"/><polygon class="cls-12" points="316.82 386.89 223.25 386.89 223.25 356.89 299.62 356.89 316.82 386.89"/><polygon class="cls-13" points="367.5 646.02 223.25 646.02 223.25 616.02 348.63 616.02 367.5 646.02"/></svg>